<?xml version="1.0" encoding="iso-8859-1"?>
<!-- Uploaded to: SVG Repo, www.svgrepo.com, Generator: SVG Repo Mixer Tools -->
<svg fill="#000000" height="800px" width="800px" version="1.1" id="Layer_1" xmlns="http://www.w3.org/2000/svg" xmlns:xlink="http://www.w3.org/1999/xlink" 
	 viewBox="0 0 512 512" xml:space="preserve">
<g>
	<g>
		<path d="M217.043,77.913H83.478c-9.22,0-16.696,7.475-16.696,16.696v66.783c0,9.22,7.475,16.696,16.696,16.696h133.565
			c9.22,0,16.696-7.475,16.696-16.696V94.609C233.739,85.388,226.264,77.913,217.043,77.913z M200.348,144.696H100.174v-33.391
			h100.174V144.696z"/>
	</g>
</g>
<g>
	<g>
		<path d="M495.304,66.783h-16.696V16.696c0-9.22-7.475-16.696-16.696-16.696s-16.696,7.475-16.696,16.696v50.087h-33.391V16.696
			C411.826,7.475,404.351,0,395.13,0s-16.696,7.475-16.696,16.696v50.087h-16.696c-9.22,0-16.696,7.475-16.696,16.696v66.783
			c0,27.618,22.469,50.087,50.087,50.087h16.696V395.13c0,9.206-7.49,16.696-16.696,16.696s-16.696-7.49-16.696-16.696V261.565
			c0-27.618-22.469-50.087-50.087-50.087h-27.826V61.217c0-27.618-22.469-50.087-50.087-50.087H50.087
			C22.469,11.13,0,33.599,0,61.217v434.087C0,504.525,7.475,512,16.696,512h267.13c9.22,0,16.696-7.475,16.696-16.696V244.87h27.826
			c9.206,0,16.696,7.49,16.696,16.696V395.13c0,27.618,22.469,50.087,50.087,50.087s50.087-22.469,50.087-50.087V200.348h16.696
			c27.618,0,50.087-22.469,50.087-50.087V83.478C512,74.258,504.525,66.783,495.304,66.783z M267.13,478.609H33.391v-33.391H267.13
			V478.609z M267.13,411.826H33.391V61.217c0-9.206,7.49-16.696,16.696-16.696h200.348c9.206,0,16.696,7.49,16.696,16.696V411.826z
			 M478.609,150.261c0,9.206-7.49,16.696-16.696,16.696H395.13c-9.206,0-16.696-7.49-16.696-16.696v-50.087h100.174V150.261z"/>
	</g>
</g>
<g>
	<g>
		<path d="M183.652,278.261h-39.768l21.31-42.621c4.124-8.247,0.78-18.276-7.466-22.399c-8.248-4.126-18.276-0.78-22.4,7.466
			l-33.391,66.783c-5.538,11.077,2.524,24.162,14.933,24.162h39.768l-21.31,42.621c-4.124,8.247-0.78,18.276,7.466,22.399
			c8.241,4.123,18.274,0.784,22.4-7.466l33.391-66.783C204.123,291.346,196.06,278.261,183.652,278.261z"/>
	</g>
</g>
</svg>